<?xml version="1.0" standalone="no"?>
<!DOCTYPE svg PUBLIC "-//W3C//DTD SVG 20010904//EN"
 "http://www.w3.org/TR/2001/REC-SVG-20010904/DTD/svg10.dtd">
<svg version="1.0" xmlns="http://www.w3.org/2000/svg"
 width="512.000000pt" height="512.000000pt" viewBox="0 0 512.000000 512.000000"
 preserveAspectRatio="xMidYMid meet">
<metadata>
Created by potrace 1.14, written by Peter Selinger 2001-2017
</metadata>
<g transform="translate(0.000000,512.000000) scale(0.100000,-0.100000)"
fill="#000000" stroke="none">
<path d="M4655 4894 c-127 -37 -165 -62 -165 -108 0 -21 -10 -26 -96 -50 l-95
-28 -24 26 c-17 18 -34 26 -57 26 -43 0 -249 -62 -284 -84 -29 -19 -153 -264
-163 -323 -5 -27 -130 -152 -745 -743 -545 -525 -742 -708 -751 -700 -7 5 -27
42 -45 81 -29 63 -32 78 -28 142 5 94 32 150 113 230 34 34 70 76 79 94 34 68
10 175 -50 222 -86 68 -247 43 -414 -64 -180 -116 -284 -260 -409 -567 -84
-205 -115 -264 -177 -328 -75 -79 -130 -105 -312 -150 -86 -21 -193 -51 -237
-65 -112 -37 -288 -124 -364 -180 l-64 -47 6 -46 c5 -47 5 -47 -63 -119 -65
-68 -71 -72 -104 -66 -31 5 -40 1 -65 -26 -34 -36 -83 -148 -113 -259 -18 -64
-21 -104 -21 -242 0 -152 2 -174 31 -284 155 -589 724 -1046 1301 -1046 253 0
448 73 613 228 172 162 247 325 303 655 14 81 32 161 40 176 25 49 74 81 270
176 261 127 356 204 371 300 11 76 -31 156 -99 192 -43 22 -122 19 -177 -6
-127 -57 -238 -23 -326 99 l-32 45 919 955 c603 627 927 957 945 962 14 4 43
19 64 33 50 34 104 42 154 21 94 -39 126 -19 280 180 69 89 138 170 153 180
16 10 82 48 147 85 126 69 156 100 156 162 0 45 -22 76 -138 190 l-109 107
-49 -1 c-27 0 -103 -16 -169 -35z m-3358 -3124 c35 -32 80 -39 101 -18 10 10
29 -4 89 -65 61 -60 75 -79 65 -89 -23 -23 -14 -66 23 -107 19 -21 35 -43 35
-49 0 -18 -59 -80 -82 -88 -17 -5 -51 24 -194 167 -96 96 -174 180 -174 188 0
19 70 91 88 91 8 0 30 -13 49 -30z m-315 -597 c103 -103 168 -175 168 -187 0
-27 -59 -86 -84 -86 -13 0 -83 62 -193 172 -95 95 -173 176 -173 180 0 19 74
88 94 88 14 0 77 -56 188 -167z"/>
</g>
</svg>
